<mxfile host="65bd71144e">
    <diagram id="_kCOBx-NuznwDHsG8FLZ" name="Page-1">
        <mxGraphModel dx="766" dy="456" grid="1" gridSize="10" guides="1" tooltips="1" connect="1" arrows="1" fold="1" page="1" pageScale="1" pageWidth="850" pageHeight="1100" math="0" shadow="0">
            <root>
                <mxCell id="0"/>
                <mxCell id="1" parent="0"/>
                <mxCell id="15" value="data 2&amp;nbsp; &amp;nbsp; &amp;nbsp; &amp;nbsp; &amp;nbsp; &amp;nbsp;address of next" style="rounded=1;whiteSpace=wrap;html=1;arcSize=35;fillColor=#0000CC;" parent="1" vertex="1">
                    <mxGeometry x="460" y="173" width="180" height="60" as="geometry"/>
                </mxCell>
                <mxCell id="16" value="" style="endArrow=none;html=1;" parent="1" edge="1">
                    <mxGeometry width="50" height="50" relative="1" as="geometry">
                        <mxPoint x="519" y="233" as="sourcePoint"/>
                        <mxPoint x="520" y="173" as="targetPoint"/>
                        <Array as="points">
                            <mxPoint x="520" y="203"/>
                        </Array>
                    </mxGeometry>
                </mxCell>
                <mxCell id="18" value="" style="endArrow=none;html=1;startArrow=none;" parent="1" source="17" edge="1">
                    <mxGeometry width="50" height="50" relative="1" as="geometry">
                        <mxPoint x="579" y="443" as="sourcePoint"/>
                        <mxPoint x="580" y="383" as="targetPoint"/>
                        <Array as="points"/>
                    </mxGeometry>
                </mxCell>
                <mxCell id="2" value="data 1&amp;nbsp; &amp;nbsp; &amp;nbsp; &amp;nbsp; &amp;nbsp;address" style="rounded=1;whiteSpace=wrap;html=1;arcSize=35;fillColor=#190033;" parent="1" vertex="1">
                    <mxGeometry x="160" y="293" width="160" height="60" as="geometry"/>
                </mxCell>
                <mxCell id="22" value="" style="endArrow=none;html=1;entryX=0.5;entryY=0;entryDx=0;entryDy=0;exitX=0.5;exitY=1;exitDx=0;exitDy=0;" parent="1" source="2" target="2" edge="1">
                    <mxGeometry width="50" height="50" relative="1" as="geometry">
                        <mxPoint x="430" y="373" as="sourcePoint"/>
                        <mxPoint x="480" y="323" as="targetPoint"/>
                        <Array as="points"/>
                    </mxGeometry>
                </mxCell>
                <mxCell id="24" value="" style="edgeStyle=elbowEdgeStyle;elbow=horizontal;endArrow=classic;html=1;curved=0;rounded=0;endSize=8;startSize=8;exitX=1;exitY=0.5;exitDx=0;exitDy=0;entryX=0;entryY=0.5;entryDx=0;entryDy=0;" parent="1" source="2" target="15" edge="1">
                    <mxGeometry width="50" height="50" relative="1" as="geometry">
                        <mxPoint x="430" y="373" as="sourcePoint"/>
                        <mxPoint x="480" y="323" as="targetPoint"/>
                    </mxGeometry>
                </mxCell>
                <mxCell id="25" value="" style="edgeStyle=segmentEdgeStyle;endArrow=classic;html=1;curved=0;rounded=0;endSize=8;startSize=8;entryX=0;entryY=0.5;entryDx=0;entryDy=0;exitX=1;exitY=0.5;exitDx=0;exitDy=0;" parent="1" source="15" target="17" edge="1">
                    <mxGeometry width="50" height="50" relative="1" as="geometry">
                        <mxPoint x="700" y="263" as="sourcePoint"/>
                        <mxPoint x="470" y="423" as="targetPoint"/>
                        <Array as="points">
                            <mxPoint x="700" y="203"/>
                            <mxPoint x="700" y="303"/>
                            <mxPoint x="430" y="303"/>
                            <mxPoint x="430" y="413"/>
                        </Array>
                    </mxGeometry>
                </mxCell>
                <mxCell id="26" value="node 1&lt;br&gt;" style="text;html=1;align=center;verticalAlign=middle;resizable=0;points=[];autosize=1;strokeColor=none;fillColor=none;" parent="1" vertex="1">
                    <mxGeometry x="210" y="363" width="60" height="30" as="geometry"/>
                </mxCell>
                <mxCell id="32" value="node 2" style="text;html=1;align=center;verticalAlign=middle;resizable=0;points=[];autosize=1;strokeColor=none;fillColor=none;" parent="1" vertex="1">
                    <mxGeometry x="500" y="128" width="60" height="30" as="geometry"/>
                </mxCell>
                <mxCell id="33" value="node 3&lt;br&gt;" style="text;html=1;align=center;verticalAlign=middle;resizable=0;points=[];autosize=1;strokeColor=none;fillColor=none;" parent="1" vertex="1">
                    <mxGeometry x="570" y="463" width="60" height="30" as="geometry"/>
                </mxCell>
                <mxCell id="34" value="&lt;font style=&quot;font-size: 36px;&quot;&gt;Single LinkedList&lt;/font&gt;" style="text;html=1;align=center;verticalAlign=middle;resizable=0;points=[];autosize=1;strokeColor=none;fillColor=none;" parent="1" vertex="1">
                    <mxGeometry x="300" y="40" width="300" height="60" as="geometry"/>
                </mxCell>
                <mxCell id="38" value="" style="endArrow=none;html=1;" parent="1" target="17" edge="1">
                    <mxGeometry width="50" height="50" relative="1" as="geometry">
                        <mxPoint x="579" y="443" as="sourcePoint"/>
                        <mxPoint x="580" y="383" as="targetPoint"/>
                        <Array as="points">
                            <mxPoint x="580" y="413"/>
                        </Array>
                    </mxGeometry>
                </mxCell>
                <mxCell id="17" value="data 3&amp;nbsp; &amp;nbsp; &amp;nbsp; &amp;nbsp; &amp;nbsp; &amp;nbsp; &amp;nbsp; &amp;nbsp; &amp;nbsp; &amp;nbsp; &amp;nbsp; NULL&amp;nbsp; &amp;nbsp;" style="rounded=1;whiteSpace=wrap;html=1;arcSize=35;fillColor=#990099;" parent="1" vertex="1">
                    <mxGeometry x="500" y="383" width="180" height="60" as="geometry"/>
                </mxCell>
            </root>
        </mxGraphModel>
    </diagram>
</mxfile>